<svg width="118" height="36" viewBox="0 0 118 36" fill="none" xmlns="http://www.w3.org/2000/svg">
<path d="M1.296 15.096H6.336V16.824H6.768C6.992 16.168 7.368 15.664 7.896 15.312C8.44 14.944 9.088 14.76 9.84 14.76C11.024 14.76 11.976 15.136 12.696 15.888C13.416 16.624 13.776 17.752 13.776 19.272V19.8L10.656 20.088V19.752C10.656 19.096 10.488 18.576 10.152 18.192C9.816 17.792 9.312 17.592 8.64 17.592C7.968 17.592 7.44 17.824 7.056 18.288C6.672 18.752 6.48 19.416 6.48 20.28V24.12H9.216V27H1.008V24.12H3.456V17.976H1.296V15.096ZM16.7833 24.12H20.8153V17.976H17.0713V15.096H23.8393V24.12H27.2953V27H16.7833V24.12ZM24.5833 11.568C24.5833 11.888 24.5193 12.192 24.3913 12.48C24.2793 12.752 24.1193 12.992 23.9113 13.2C23.7033 13.392 23.4553 13.552 23.1673 13.68C22.8953 13.792 22.6073 13.848 22.3033 13.848C21.9833 13.848 21.6873 13.792 21.4153 13.68C21.1433 13.552 20.9033 13.392 20.6953 13.2C20.4873 12.992 20.3193 12.752 20.1913 12.48C20.0793 12.192 20.0233 11.888 20.0233 11.568C20.0233 11.248 20.0793 10.952 20.1913 10.68C20.3193 10.392 20.4873 10.152 20.6953 9.96C20.9033 9.752 21.1433 9.592 21.4153 9.48C21.6873 9.352 21.9833 9.288 22.3033 9.288C22.6073 9.288 22.8953 9.352 23.1673 9.48C23.4553 9.592 23.7033 9.752 23.9113 9.96C24.1193 10.152 24.2793 10.392 24.3913 10.68C24.5193 10.952 24.5833 11.248 24.5833 11.568ZM30.9266 15.096H34.4546V10.2H37.4786V15.096H41.7746V17.976H37.4786V23.4C37.4786 23.88 37.6946 24.12 38.1266 24.12H41.3426V27H36.3026C35.7586 27 35.3106 26.824 34.9586 26.472C34.6226 26.12 34.4546 25.672 34.4546 25.128V17.976H30.9266V15.096ZM53.6619 25.272C53.3419 26.024 52.8939 26.56 52.3179 26.88C51.7419 27.184 51.0699 27.336 50.3019 27.336C49.5819 27.336 48.9019 27.2 48.2619 26.928C47.6379 26.656 47.0859 26.256 46.6059 25.728C46.1259 25.2 45.7419 24.56 45.4539 23.808C45.1819 23.056 45.0459 22.2 45.0459 21.24V20.856C45.0459 19.912 45.1819 19.064 45.4539 18.312C45.7259 17.56 46.0939 16.92 46.5579 16.392C47.0219 15.864 47.5579 15.464 48.1659 15.192C48.7899 14.904 49.4539 14.76 50.1579 14.76C51.0059 14.76 51.6859 14.904 52.1979 15.192C52.7259 15.48 53.1419 15.928 53.4459 16.536H53.8779V15.096H56.9019V23.4C56.9019 23.88 57.1179 24.12 57.5499 24.12H58.0059V27H55.9419C55.3979 27 54.9499 26.84 54.5979 26.52C54.2619 26.2 54.0939 25.784 54.0939 25.272H53.6619ZM50.9739 24.456C51.8539 24.456 52.5579 24.168 53.0859 23.592C53.6139 23 53.8779 22.2 53.8779 21.192V20.904C53.8779 19.896 53.6139 19.104 53.0859 18.528C52.5579 17.936 51.8539 17.64 50.9739 17.64C50.0939 17.64 49.3899 17.936 48.8619 18.528C48.3339 19.104 48.0699 19.896 48.0699 20.904V21.192C48.0699 22.2 48.3339 23 48.8619 23.592C49.3899 24.168 50.0939 24.456 50.9739 24.456ZM62.3813 19.032H69.8693V21.768H62.3813V19.032ZM87.0126 21.192C87.0126 22.184 86.8446 23.064 86.5086 23.832C86.1726 24.584 85.7166 25.224 85.1406 25.752C84.5646 26.264 83.9006 26.656 83.1486 26.928C82.4126 27.2 81.6366 27.336 80.8206 27.336C80.0046 27.336 79.2206 27.2 78.4686 26.928C77.7326 26.656 77.0766 26.264 76.5006 25.752C75.9246 25.224 75.4686 24.584 75.1326 23.832C74.7966 23.064 74.6286 22.184 74.6286 21.192V20.904C74.6286 19.928 74.7966 19.064 75.1326 18.312C75.4686 17.544 75.9246 16.896 76.5006 16.368C77.0766 15.84 77.7326 15.44 78.4686 15.168C79.2206 14.896 80.0046 14.76 80.8206 14.76C81.6366 14.76 82.4126 14.896 83.1486 15.168C83.9006 15.44 84.5646 15.84 85.1406 16.368C85.7166 16.896 86.1726 17.544 86.5086 18.312C86.8446 19.064 87.0126 19.928 87.0126 20.904V21.192ZM80.8206 24.456C81.2526 24.456 81.6606 24.384 82.0446 24.24C82.4286 24.096 82.7646 23.888 83.0526 23.616C83.3406 23.344 83.5646 23.016 83.7246 22.632C83.9006 22.232 83.9886 21.784 83.9886 21.288V20.808C83.9886 20.312 83.9006 19.872 83.7246 19.488C83.5646 19.088 83.3406 18.752 83.0526 18.48C82.7646 18.208 82.4286 18 82.0446 17.856C81.6606 17.712 81.2526 17.64 80.8206 17.64C80.3886 17.64 79.9806 17.712 79.5966 17.856C79.2126 18 78.8766 18.208 78.5886 18.48C78.3006 18.752 78.0686 19.088 77.8926 19.488C77.7326 19.872 77.6526 20.312 77.6526 20.808V21.288C77.6526 21.784 77.7326 22.232 77.8926 22.632C78.0686 23.016 78.3006 23.344 78.5886 23.616C78.8766 23.888 79.2126 24.096 79.5966 24.24C79.9806 24.384 80.3886 24.456 80.8206 24.456ZM97.7479 25.272C97.4279 26.024 96.9799 26.56 96.4039 26.88C95.8279 27.184 95.1559 27.336 94.3879 27.336C93.6679 27.336 92.9879 27.2 92.3479 26.928C91.7239 26.656 91.1719 26.256 90.6919 25.728C90.2119 25.2 89.8279 24.56 89.5399 23.808C89.2679 23.056 89.1319 22.2 89.1319 21.24V20.856C89.1319 19.912 89.2679 19.064 89.5399 18.312C89.8119 17.56 90.1799 16.92 90.6439 16.392C91.1079 15.864 91.6439 15.464 92.2519 15.192C92.8759 14.904 93.5399 14.76 94.2439 14.76C95.0919 14.76 95.7719 14.904 96.2839 15.192C96.8119 15.48 97.2279 15.928 97.5319 16.536H97.9639V15.096H100.988V23.4C100.988 23.88 101.204 24.12 101.636 24.12H102.092V27H100.028C99.4839 27 99.0359 26.84 98.6839 26.52C98.3479 26.2 98.1799 25.784 98.1799 25.272H97.7479ZM95.0599 24.456C95.9399 24.456 96.6439 24.168 97.1719 23.592C97.6999 23 97.9639 22.2 97.9639 21.192V20.904C97.9639 19.896 97.6999 19.104 97.1719 18.528C96.6439 17.936 95.9399 17.64 95.0599 17.64C94.1799 17.64 93.4759 17.936 92.9479 18.528C92.4199 19.104 92.1559 19.896 92.1559 20.904V21.192C92.1559 22.2 92.4199 23 92.9479 23.592C93.4759 24.168 94.1799 24.456 95.0599 24.456ZM108.723 19.464H109.299L112.467 15.096H115.779V15.24L111.939 20.688V21.12L116.163 26.856V27H112.707L109.299 22.344H108.723V27H105.699V10.2H108.723V19.464Z" fill="white"/>
</svg>
