<svg width="132" height="23" viewBox="0 0 132 23" fill="none" xmlns="http://www.w3.org/2000/svg">
<path d="M0.072 18.78H3.404V10.772H0.072V7.552H7.548V11.64H7.744C7.87467 11.1173 8.052 10.6133 8.276 10.128C8.51867 9.624 8.81733 9.18533 9.172 8.812C9.54533 8.42 9.99333 8.112 10.516 7.888C11.0387 7.664 11.6547 7.552 12.364 7.552H13.736V11.36H10.656C9.62933 11.36 8.85467 11.668 8.332 12.284C7.80933 12.8813 7.548 13.6187 7.548 14.496V18.78H12.308V22H0.072V18.78ZM24.0851 5.704C23.1517 5.704 22.4984 5.51733 22.1251 5.144C21.7704 4.752 21.5931 4.28533 21.5931 3.744V2.932C21.5931 2.372 21.7704 1.90533 22.1251 1.532C22.4984 1.15867 23.1517 0.971999 24.0851 0.971999C25.0184 0.971999 25.6624 1.15867 26.0171 1.532C26.3904 1.90533 26.5771 2.372 26.5771 2.932V3.744C26.5771 4.28533 26.3904 4.752 26.0171 5.144C25.6624 5.51733 25.0184 5.704 24.0851 5.704ZM17.4211 18.78H22.0131V10.772H17.4211V7.552H26.1571V18.78H30.4131V22H17.4211V18.78ZM41.0981 22C39.6048 22 38.4941 21.608 37.7661 20.824C37.0381 20.04 36.6741 19.0413 36.6741 17.828V10.772H32.7541V7.552H35.3021C35.9181 7.552 36.3568 7.43067 36.6181 7.188C36.8795 6.94533 37.0101 6.49733 37.0101 5.844V2.456H40.8181V7.552H46.4461V10.772H40.8181V18.78H46.4461V22H41.0981ZM62.0032 22C61.1445 22 60.4539 21.7853 59.9312 21.356C59.4085 20.908 59.1005 20.2733 59.0072 19.452H58.8672C58.6059 20.404 58.0832 21.1227 57.2992 21.608C56.5339 22.0933 55.5912 22.336 54.4712 22.336C53.0712 22.336 51.9419 21.9627 51.0832 21.216C50.2432 20.4507 49.8232 19.3867 49.8232 18.024C49.8232 16.512 50.3739 15.392 51.4752 14.664C52.5765 13.936 54.1912 13.572 56.3192 13.572H58.6432V12.844C58.6432 11.9853 58.4379 11.3413 58.0272 10.912C57.6352 10.464 56.9632 10.24 56.0112 10.24C55.1339 10.24 54.4245 10.408 53.8832 10.744C53.3419 11.08 52.8752 11.5187 52.4832 12.06L50.2152 10.044C50.7005 9.22267 51.4565 8.55067 52.4832 8.028C53.5285 7.48667 54.8632 7.216 56.4872 7.216C58.4659 7.216 60.0059 7.67333 61.1072 8.588C62.2272 9.484 62.7872 10.8467 62.7872 12.676V19.004H64.3832V22H62.0032ZM56.0392 19.62C56.7672 19.62 57.3832 19.4427 57.8872 19.088C58.3912 18.7333 58.6432 18.22 58.6432 17.548V15.812H56.4312C54.7325 15.812 53.8832 16.3813 53.8832 17.52V18.08C53.8832 18.584 54.0792 18.9667 54.4712 19.228C54.8632 19.4893 55.3859 19.62 56.0392 19.62ZM69.0763 15.448V11.472H78.0363V15.448H69.0763ZM90.3453 22.336C89.2253 22.336 88.2173 22.168 87.3213 21.832C86.4253 21.4773 85.66 20.9733 85.0253 20.32C84.4093 19.6667 83.9333 18.8733 83.5973 17.94C83.2613 17.0067 83.0933 15.952 83.0933 14.776C83.0933 13.6 83.2613 12.5453 83.5973 11.612C83.9333 10.6787 84.4093 9.88533 85.0253 9.232C85.66 8.57867 86.4253 8.084 87.3213 7.748C88.2173 7.39333 89.2253 7.216 90.3453 7.216C91.4653 7.216 92.4733 7.39333 93.3693 7.748C94.2653 8.084 95.0213 8.57867 95.6373 9.232C96.272 9.88533 96.7573 10.6787 97.0933 11.612C97.4293 12.5453 97.5973 13.6 97.5973 14.776C97.5973 15.952 97.4293 17.0067 97.0933 17.94C96.7573 18.8733 96.272 19.6667 95.6373 20.32C95.0213 20.9733 94.2653 21.4773 93.3693 21.832C92.4733 22.168 91.4653 22.336 90.3453 22.336ZM90.3453 19.256C91.2786 19.256 92.0066 18.9667 92.5293 18.388C93.052 17.8093 93.3133 16.988 93.3133 15.924V13.628C93.3133 12.564 93.052 11.7427 92.5293 11.164C92.0066 10.5853 91.2786 10.296 90.3453 10.296C89.412 10.296 88.684 10.5853 88.1613 11.164C87.6386 11.7427 87.3773 12.564 87.3773 13.628V15.924C87.3773 16.988 87.6386 17.8093 88.1613 18.388C88.684 18.9667 89.412 19.256 90.3453 19.256ZM112.37 22C111.512 22 110.821 21.7853 110.298 21.356C109.776 20.908 109.468 20.2733 109.374 19.452H109.234C108.973 20.404 108.45 21.1227 107.666 21.608C106.901 22.0933 105.958 22.336 104.838 22.336C103.438 22.336 102.309 21.9627 101.45 21.216C100.61 20.4507 100.19 19.3867 100.19 18.024C100.19 16.512 100.741 15.392 101.842 14.664C102.944 13.936 104.558 13.572 106.686 13.572H109.01V12.844C109.01 11.9853 108.805 11.3413 108.394 10.912C108.002 10.464 107.33 10.24 106.378 10.24C105.501 10.24 104.792 10.408 104.25 10.744C103.709 11.08 103.242 11.5187 102.85 12.06L100.582 10.044C101.068 9.22267 101.824 8.55067 102.85 8.028C103.896 7.48667 105.23 7.216 106.854 7.216C108.833 7.216 110.373 7.67333 111.474 8.588C112.594 9.484 113.154 10.8467 113.154 12.676V19.004H114.75V22H112.37ZM106.406 19.62C107.134 19.62 107.75 19.4427 108.254 19.088C108.758 18.7333 109.01 18.22 109.01 17.548V15.812H106.798C105.1 15.812 104.25 16.3813 104.25 17.52V18.08C104.25 18.584 104.446 18.9667 104.838 19.228C105.23 19.4893 105.753 19.62 106.406 19.62ZM117.343 1.28H121.487V13.04H121.683L123.615 10.772L126.639 7.552H131.399L125.799 13.264L131.987 22H127.059L122.859 15.616L121.487 16.988V22H117.343V1.28Z" fill="white"/>
</svg>
